<?xml version="1.0"?>
<svg xmlns="http://www.w3.org/2000/svg" xmlns:xlink="http://www.w3.org/1999/xlink" xmlns:svgjs="http://svgjs.com/svgjs" version="1.1" width="512" height="512" x="0" y="0" viewBox="0 0 512 512" style="enable-background:new 0 0 512 512" xml:space="preserve"><g><g xmlns="http://www.w3.org/2000/svg"><path d="m493.911 418.012-4.549-2.274c-5.653-2.826-9.388-8.563-9.363-14.883.073-18.104-14.633-32.855-32.72-32.855h-159.279v-14c0-1.105-.895-2-2-2h-60c-1.105 0-2 .895-2 2v14h-159.279c-18.087 0-32.793 14.751-32.721 32.855.025 6.32-3.71 12.057-9.363 14.882l-4.546 2.272c-11.087 5.543-18.091 16.874-18.091 29.269v8.722c0 4.418 3.582 8 8 8h496c4.418 0 8-3.582 8-8v-8.722c0-12.394-7.003-23.724-18.089-29.266z" fill="#000000" data-original="#000000" style=""/><path d="m64 336h384c4.418 0 8-3.582 8-8v-8c0-17.645-14.355-32-32-32h-336c-17.645 0-32 14.355-32 32v8c0 4.418 3.582 8 8 8z" fill="#000000" data-original="#000000" style=""/><path d="m424 272c1.838 0 3.652.105 5.436.308 1.237.141 2.314-.863 2.23-2.105-5.585-81.914-83.009-150.203-172.816-150.203h-5.7c-91.218 0-167.269 69.64-172.811 150.147-.083 1.21.938 2.213 2.147 2.118 6.111-.477 39.583-.265 341.514-.265z" fill="#000000" data-original="#000000" style=""/><path d="m228 88h4v14.944c0 1.175 1.009 2.104 2.179 1.992 13.063-1.256 29.659-1.348 43.622-.002 1.179.114 2.199-.803 2.199-1.988v-14.946h4c11.046 0 20-8.954 20-20 0-11.046-8.954-20-20-20h-56c-11.046 0-20 8.954-20 20 0 11.046 8.954 20 20 20z" fill="#000000" data-original="#000000" style=""/></g></g></svg>
